<?xml version="1.0" encoding="UTF-8" standalone="no"?>
<!-- Created with Inkscape (http://www.inkscape.org/) -->

<svg
        width="5.2585988mm"
        height="4.7377129mm"
        viewBox="0 0 5.2585988 4.7377129"
        version="1.1"
        id="svg1"
        xmlns="http://www.w3.org/2000/svg"
>
  <defs
     id="defs1">
    <rect
       x="47.815243"
       y="86.442001"
       width="70.813637"
       height="41.26519"
       id="rect3" />
    <rect
       x="-28.814823"
       y="-22.431753"
       width="146.2458"
       height="66.890388"
       id="rect2" />
  </defs>
  <g
     id="layer1"
     transform="translate(-19.065927,-91.179925)">
    <path
       id="text1"
       style="font-size:8.46667px;font-family:Eldamar;-inkscape-font-specification:Eldamar;fill:#008000;fill-rule:evenodd;stroke:#000000;stroke-width:0.132292"
       d="m 23.580411,91.246071 c -0.264583,0 -0.536061,0.101977 -0.81442,0.305924 -0.658702,0.482312 -1.375287,1.292607 -2.14974,2.430857 -0.03858,0.0551 -0.07579,0.0827 -0.111621,0.0827 -0.04685,0 -0.125402,-0.16536 -0.235645,-0.49609 -0.05512,-0.17639 -0.13643,-0.26458 -0.243912,-0.26458 h -0.0083 c -0.132291,0 -0.330729,0.0606 -0.595312,0.1819 -0.192925,0.0882 -0.289388,0.19982 -0.289388,0.33486 0,0.36932 0.09922,0.79927 0.297656,1.28985 0.157096,0.3886 0.267339,0.59944 0.330729,0.63252 0.151584,0.0717 0.296279,0.10748 0.434082,0.10748 0.418924,0 0.686265,-0.10473 0.802019,-0.31419 0.338995,-0.61185 1.394583,-1.93478 3.166731,-3.96875 0.06339,-0.07441 0.09509,-0.136426 0.09509,-0.186035 0,-0.06063 -0.01516,-0.09508 -0.04547,-0.103353 -0.07166,-0.02205 -0.282498,-0.03307 -0.63252,-0.03307 z" />
    <text
       xml:space="preserve"
       transform="matrix(0.26458333,0,0,0.26458333,19.10271,91.162394)"
       id="text2"
       style="font-size:32px;font-family:Eldamar;-inkscape-font-specification:Eldamar;white-space:pre;shape-inside:url(#rect2);fill:#000000;fill-rule:evenodd;stroke:#000000;stroke-width:0.5" />
    <text
       xml:space="preserve"
       transform="matrix(0.26458333,0,0,0.26458333,19.10271,91.162394)"
       id="text3"
       style="font-size:32px;font-family:Eldamar;-inkscape-font-specification:Eldamar;white-space:pre;shape-inside:url(#rect3);fill:#000000;fill-rule:evenodd;stroke:#000000;stroke-width:0.5" />
  </g>
</svg>
