<?xml version="1.0" encoding="UTF-8" standalone="no"?>
<!-- Created with Inkscape (http://www.inkscape.org/) -->

<svg
        width="4.6374559mm"
        height="4.7557979mm"
        viewBox="0 0 4.6374559 4.7557979"
        version="1.1"
        id="svg1"
        xmlns="http://www.w3.org/2000/svg"
>

  <defs
     id="defs1">
    <rect
       x="47.815243"
       y="86.442001"
       width="70.813637"
       height="41.26519"
       id="rect3" />
    <rect
       x="-28.814823"
       y="-22.431753"
       width="146.2458"
       height="66.890388"
       id="rect2" />
  </defs>
  <g
     id="layer1"
     transform="translate(-19.859677,-91.179924)">
    <text
       xml:space="preserve"
       transform="matrix(0.26458333,0,0,0.26458333,19.10271,91.162394)"
       id="text2"
       style="font-size:32px;font-family:Eldamar;-inkscape-font-specification:Eldamar;white-space:pre;shape-inside:url(#rect2);display:inline;fill:#000000;fill-rule:evenodd;stroke:#000000;stroke-width:0.5" />
    <text
       xml:space="preserve"
       transform="matrix(0.26458333,0,0,0.26458333,19.10271,91.162394)"
       id="text3"
       style="font-size:32px;font-family:Eldamar;-inkscape-font-specification:Eldamar;white-space:pre;shape-inside:url(#rect3);display:inline;fill:#000000;fill-rule:evenodd;stroke:#000000;stroke-width:0.5" />
    <path
       d="m 23.813168,91.232446 q 0.101735,0 0.196448,0.09215 0.07016,0.06758 0.09822,0.245744 0.09121,-0.003 0.126288,0.0123 0.112256,0.0369 0.161367,0.0799 0.04912,0.0399 0.04912,0.10444 0,0.12287 -0.05613,0.17202 -0.845424,0.67271 -1.669802,1.63417 0.519183,0.62664 1.038364,1.12427 0.05964,0.0553 0.05964,0.12901 0,0.15052 -0.105241,0.23039 -0.07016,0.0522 -0.199955,0.0584 -0.0071,0.0522 -0.05613,0.15972 -0.08419,0.17816 -0.196447,0.17816 -0.126287,0 -0.231527,-0.0737 -0.02806,0.0553 -0.07718,0.0891 -0.126288,0.0829 -0.221003,0.0829 -0.08068,0 -0.171892,-0.086 -0.31221,-0.29182 -0.736676,-0.87853 -0.806838,0.80173 -1.11554,1.21641 -0.05963,0.0799 -0.133303,0.0799 0,0 -0.0071,0 -0.06315,0 -0.122779,-0.11058 -0.05262,-0.0952 -0.05963,-0.13516 -0.07016,0.0369 -0.133303,0.0369 -0.0877,0 -0.189432,-0.0922 -0.126287,-0.10751 -0.126287,-0.15973 0,-0.0829 0.105241,-0.22117 -0.03157,-0.009 -0.06315,-0.0491 -0.06315,-0.0737 -0.06315,-0.14745 0,-0.0645 0.08419,-0.15974 0.456038,-0.54062 1.143603,-1.19184 -0.427974,-0.58055 -0.775265,-1.40071 -0.07718,-0.18738 -0.07718,-0.27339 0,-0.0799 0.08068,-0.23038 0.05613,-0.0983 0.133304,-0.0983 0.09121,0 0.259591,0.1198 0.0035,-0.043 0.04209,-0.1198 0.08068,-0.15358 0.14032,-0.15358 0.150844,0 0.196447,0.0799 0.371847,0.60207 0.898045,1.17341 0.810345,-0.81094 1.683833,-1.480586 0.04209,-0.03686 0.09121,-0.03686 z"
       id="text4"
       style="font-size:6.72283px;font-family:Eldamar;-inkscape-font-specification:Eldamar;fill:#800000;fill-rule:evenodd;stroke:#000000;stroke-width:0.105044"
       aria-label="✘" />
  </g>
</svg>
